#!OML:ASF F:\VICON\USERDATA\INSTALL\Justin_Nancy\Justin_Nancy.ASF
:FULLY-SPECIFIED
:DEGREES
208
root -0.203515 17.5061 30.6093 1.29979 1.62593 -0.840948
lowerback 5.96526 0.00943953 -0.271731
upperback -0.880344 0.103505 2.63374
thorax -4.26542 0.0910564 2.87238
lowerneck -17.6084 -3.516 -10.7699
upperneck 18.2471 -3.29992 6.34422
head 8.91146 -1.62998 3.52498
rclavicle 6.90777e-015 -1.11319e-014
rhumerus -38.4225 -25.8422 -70.5966
rradius 29.2043
rwrist 10.0622
rhand -16.267 11.5902
rfingers 7.12502
rthumb 9.94256 -18.155
lclavicle 6.90777e-015 -1.11319e-014
lhumerus -37.9149 10.5731 82.6942
lradius 54.7398
lwrist 4.80956
lhand -20.1048 22.3212
lfingers 7.12502
lthumb 6.23867 52.2093
rfemur -11.6661 -0.738403 18.6343
rtibia 34.0991
rfoot -17.7059 -7.79415
rtoes -1.15285
lfemur -15.2686 0.0767308 -21.9317
ltibia 35.6112
lfoot -12.5323 0.780634
ltoes -6.95478
209
root -0.206658 17.4911 30.6293 1.41068 1.62813 -1.05999
lowerback 5.92283 -0.0427517 -0.0929295
upperback -0.9605 0.0508604 2.69178
thorax -4.32198 0.0622724 2.83734
lowerneck -17.4981 -3.5108 -10.8127
upperneck 18.4017 -3.28635 6.28912
head 8.94361 -1.63659 3.5174
rclavicle -6.95746e-016 -1.82882e-014
rhumerus -38.7002 -25.8911 -70.4687
rradius 29.1871
rwrist 10.3821
rhand -16.1634 10.4269
rfingers 7.12502
rthumb 10.0425 -19.3135
lclavicle -6.95746e-016 -1.82882e-014
lhumerus -37.8294 10.6992 82.5174
lradius 54.9154
lwrist 4.10616
lhand -19.9186 22.4044
lfingers 7.12502
lthumb 6.41844 52.2871
rfemur -11.824 -0.740344 18.9098
rtibia 33.6101
rfoot -17.8372 -7.91494
rtoes -1.57058
lfemur -15.3412 -0.0498833 -21.6685
ltibia 35.6971
lfoot -12.8846 0.943634
ltoes -6.39598
210
root -0.215337 17.4768 30.6414 1.50406 1.5491 -1.2212
lowerback 5.8662 -0.0519838 -0.0529754
upperback -0.917168 0.0423054 2.75507
thorax -4.24462 0.0569748 2.8807
lowerneck -17.5087 -3.49793 -10.9908
upperneck 18.4347 -3.24932 6.42403
head 8.95886 -1.61786 3.59944
rclavicle 9.29318e-015 -1.35174e-014
rhumerus -38.81 -25.9442 -70.4846
rradius 29.4092
rwrist 10.6048
rhand -16.081 9.67873
rfingers 7.12502
rthumb 10.122 -20.0578
lclavicle 9.29318e-015 -1.35174e-014
lhumerus -37.5558 10.7242 82.4239
lradius 55.0411
lwrist 3.4531
lhand -19.897 22.5419
lfingers 7.12502
lthumb 6.43928 52.4241
rfemur -12.0309 -0.402121 19.1724
rtibia 33.1694
rfoot -17.9791 -8.03798
rtoes -2.28862
lfemur -15.4537 -0.0797296 -21.4308
ltibia 35.8058
lfoot -13.2105 1.05537
ltoes -6.40036
211
root -0.225614 17.4614 30.6498 1.56818 1.43394 -1.33485
lowerback 5.90698 -0.0191218 -0.0752279
upperback -0.836329 0.0863264 2.82974
thorax -4.18622 0.0793136 2.96648
lowerneck -17.8181 -3.51481 -11.0883
upperneck 18.457 -3.20042 6.3816
head 9.01912 -1.60194 3.6064
rclavicle -6.5102e-015 -1.27222e-014
rhumerus -38.7683 -25.7263 -70.6174
rradius 29.6353
rwrist 10.3617
rhand -15.9684 9.71891
rfingers 7.12502
rthumb 10.2307 -20.0123
lclavicle -6.5102e-015 -1.27222e-014
lhumerus -37.1342 10.5492 82.4806
lradius 55.035
lwrist 2.96862
lhand -19.8879 22.5
lfingers 7.12502
lthumb 6.44802 52.3818
rfemur -12.2149 0.0924267 19.3966
rtibia 32.8215
rfoot -18.0272 -8.15243
rtoes -2.32118
lfemur -15.5063 -0.0389579 -21.2401
ltibia 35.8843
lfoot -13.5195 1.1396
ltoes -5.50687
212
root -0.237707 17.4422 30.656 1.65938 1.33365 -1.37888
lowerback 5.96113 0.0130516 -0.138138
upperback -0.770878 0.124666 2.8495
thorax -4.15105 0.099333 3.01878
lowerneck -17.9592 -3.55358 -10.9543
upperneck 18.1724 -3.19904 6.07908
head 8.93982 -1.61737 3.47326
rclavicle 1.58034e-014 -2.70347e-014
rhumerus -38.6793 -25.7213 -70.7328
rradius 29.6305
rwrist 10.2746
rhand -16.1393 9.72583
rfingers 7.12502
rthumb 10.0658 -20.0134
lclavicle 1.58034e-014 -2.70347e-014
lhumerus -36.6133 10.3248 82.5155
lradius 54.9168
lwrist 2.38417
lhand -19.7838 22.6849
lfingers 7.12502
lthumb 6.5485 52.5636
rfemur -12.4098 0.524733 19.5425
rtibia 32.5407
rfoot -18.2698 -8.12109
rtoes -3.86431
lfemur -15.5699 -0.115563 -21.1474
ltibia 35.9148
lfoot -13.7261 1.39764
ltoes -5.06374
